<?xml version="1.0" encoding="utf-8"?>
<!-- Generator: Adobe Illustrator 26.2.1, SVG Export Plug-In . SVG Version: 6.00 Build 0)  -->
<svg version="1.1" id="Layer_1" xmlns="http://www.w3.org/2000/svg" xmlns:xlink="http://www.w3.org/1999/xlink" x="0px" y="0px"
	 viewBox="0 0 20 16" style="enable-background:new 0 0 20 16;" xml:space="preserve">
<style type="text/css">
	.st0{fill:none;}
	.st1{fill-rule:evenodd;clip-rule:evenodd;fill:#ED6789;}
</style>
<desc>Created with Sketch.</desc>
<g id="Icons">
	<g id="Rounded" transform="translate(-714.000000, -910.000000)">
		<g id="AV" transform="translate(100.000000, 852.000000)">
			<g id="_x2D_Round-_x2F_-AV-_x2F_-fiber_x5F_new" transform="translate(612.000000, 54.000000)">
				<g>
					<rect id="Rectangle-Copy-17" class="st0" width="24" height="24"/>
					<path id="_xD83D__xDD39_Icon-Color" class="st1" d="M20,4H4C2.9,4,2,4.9,2,6l0,12c0,1.1,0.9,2,2,2h16c1.1,0,2-0.9,2-2V6
						C22,4.9,21.1,4,20,4z M8.5,14.2c0,0.4-0.4,0.8-0.8,0.8c-0.2,0-0.5-0.1-0.6-0.3l-2.3-3.2v2.9c0,0.3-0.3,0.6-0.6,0.6
						c-0.3,0-0.6-0.3-0.6-0.6V9.8C3.5,9.4,3.9,9,4.3,9h0.1C4.6,9,4.8,9.1,5,9.3l2.3,3.2V9.6C7.2,9.3,7.5,9,7.9,9
						c0.3,0,0.6,0.3,0.6,0.6V14.2z M13.5,9.6c0,0.3-0.3,0.6-0.6,0.6H11v1.1h1.9c0.3,0,0.6,0.3,0.6,0.6v0c0,0.3-0.3,0.6-0.6,0.6H11
						v1.1h1.9c0.3,0,0.6,0.3,0.6,0.6c0,0.4-0.3,0.6-0.6,0.6h-2.5c-0.5,0-0.9-0.4-0.9-0.8V9.8C9.5,9.4,9.9,9,10.4,9h2.5
						C13.2,9,13.5,9.3,13.5,9.6L13.5,9.6z M20.5,14c0,0.6-0.5,1-1,1h-4c-0.6,0-1-0.4-1-1V9.6c0-0.3,0.3-0.6,0.6-0.6s0.6,0.3,0.6,0.6
						v3.9h1.1v-2.9c0-0.3,0.3-0.6,0.6-0.6s0.6,0.3,0.6,0.6v2.9h1.1V9.6c0-0.3,0.3-0.6,0.6-0.6s0.6,0.3,0.6,0.6L20.5,14L20.5,14z"/>
				</g>
			</g>
		</g>
	</g>
</g>
</svg>
