<?xml version="1.0" standalone="no"?>
<!DOCTYPE svg PUBLIC "-//W3C//DTD SVG 20010904//EN"
 "http://www.w3.org/TR/2001/REC-SVG-20010904/DTD/svg10.dtd">
<svg version="1.0" xmlns="http://www.w3.org/2000/svg"
 width="483.000000pt" height="180.000000pt" viewBox="0 0 483.000000 180.000000"
 preserveAspectRatio="xMidYMid meet">
 <style type="text/css">
 	.st0{fill:#4E4E4E;}
 	.st1{fill:#1EA8E7;}
 </style>
 
<g transform="translate(0.000000,180.000000) scale(0.100000,-0.100000)"
fill="#000000" stroke="none">
<path d="M385 1216 c-49 -15 -78 -31 -99 -52 -20 -19 -21 -83 -2 -90 7 -3 40
9 73 25 101 52 193 38 227 -33 20 -42 20 -79 2 -138 -20 -69 -75 -143 -207
-285 -119 -128 -120 -128 -117 -173 l3 -45 245 0 245 0 3 36 c2 21 -2 40 -11
47 -8 7 -73 12 -178 14 l-164 3 103 108 c164 174 212 258 213 376 1 105 -33
165 -115 202 -48 22 -159 24 -221 5z"/>
<path d="M943 1220 l-23 -9 0 -379 c0 -287 3 -382 13 -395 11 -16 33 -17 207
-15 l195 3 0 45 0 45 -152 3 -153 3 0 348 0 349 -22 6 c-29 7 -38 7 -65 -4z"/>
<path d="M2512 1220 l-22 -9 2 -393 3 -393 53 -3 52 -3 0 399 0 400 -22 6
c-29 7 -38 7 -66 -4z"/>
<path d="M3443 1211 c-90 -31 -171 -99 -212 -179 -45 -86 -58 -260 -28 -363
51 -171 206 -269 407 -256 86 5 188 35 209 61 8 9 11 73 9 197 l-3 184 -150 0
-150 0 0 -40 0 -40 98 -3 97 -3 0 -115 0 -114 -27 -13 c-16 -6 -66 -12 -113
-12 -68 0 -93 5 -125 22 -107 57 -165 179 -152 320 23 240 229 345 455 231 34
-17 65 -29 68 -26 2 3 7 21 11 41 4 29 1 40 -20 60 -60 61 -262 86 -374 48z"/>
<path d="M2088 1088 l-3 -73 -45 -5 -45 -5 0 -40 0 -40 48 -3 47 -3 0 -201 c0
-166 3 -206 17 -235 28 -61 130 -90 212 -62 29 10 31 14 31 56 0 45 0 45 -27
37 -46 -13 -84 -8 -106 15 -21 20 -22 33 -25 206 l-4 185 76 0 c69 0 77 2 85
22 4 11 6 32 3 45 -4 22 -8 23 -83 23 l-78 0 -3 73 -3 72 -47 3 -47 3 -3 -73z"/>
<path d="M2828 1088 l-3 -73 -45 -5 -45 -5 0 -40 0 -40 48 -3 47 -3 0 -201 c0
-166 3 -206 17 -235 28 -61 130 -90 212 -62 29 10 31 14 31 56 0 45 0 45 -27
37 -46 -13 -84 -8 -106 15 -21 20 -22 33 -25 206 l-4 185 76 0 c69 0 77 2 85
22 4 11 6 32 3 45 -4 22 -8 23 -83 23 l-78 0 -3 73 -3 72 -47 3 -47 3 -3 -73z"/>
<path d="M1555 996 c-112 -52 -165 -180 -144 -349 15 -122 78 -200 184 -228
67 -18 236 -1 282 29 17 11 26 63 14 81 -7 11 -19 10 -70 -8 -79 -27 -168 -28
-220 -1 -44 22 -81 86 -81 138 l0 32 181 0 c105 0 188 4 200 10 24 14 26 83 3
161 -20 67 -81 132 -139 148 -68 19 -154 14 -210 -13z m192 -82 c33 -21 54
-58 60 -104 l6 -40 -147 0 c-140 0 -146 1 -146 20 0 55 52 123 106 140 35 11
91 4 121 -16z"/>
<path d="M4141 1003 c-104 -38 -165 -146 -165 -293 0 -206 99 -308 288 -298
179 9 276 133 263 337 -8 128 -46 200 -131 243 -55 29 -191 35 -255 11z m189
-91 c105 -56 121 -287 25 -370 -82 -73 -201 -47 -246 52 -37 81 -21 233 29
290 41 46 132 59 192 28z"/>
</g>
</svg>
